<?xml version="1.0" encoding="utf-8"?>
<!-- Generator: Adobe Illustrator 27.0.0, SVG Export Plug-In . SVG Version: 6.00 Build 0)  -->
<svg version="1.1" id="Layer_1" xmlns="http://www.w3.org/2000/svg" xmlns:xlink="http://www.w3.org/1999/xlink" x="0px" y="0px"
	 viewBox="0 0 841.8 832.9" style="enable-background:new 0 0 841.8 832.9;" xml:space="preserve">
<style type="text/css">
	.st0{fill:#00D5BE;}
</style>
<path class="st0" d="M396.2,45.4C180,45.4,5,220.6,5,436.6s175,391.2,391.2,391.2s391.2-175.2,391.2-391.2S612.2,45.4,396.2,45.4
	 M396.2,611.7c-96.8,0-175.1-78.5-175.1-175.1s78.3-175.1,175.1-175.1s175.1,78.3,175.1,175.1S492.8,611.7,396.2,611.7"/>
<path class="st0" d="M836.8,19.1v190.7c0,14.3-19,19.6-26.1,7.2C766.6,140,702.7,75.6,625.9,31.1c-12.3-7.2-7-26.1,7.3-26.1h189.5
	C830.5,5,836.8,11.3,836.8,19.1"/>
</svg>
