<?xml version="1.0" encoding="UTF-8"?>
<svg id="Layer_1" data-name="Layer 1" xmlns="http://www.w3.org/2000/svg" viewBox="0 0 831.75 822.86">
  <defs>
    <style>
      .cls-1 {
        fill: #fff;
      }
    </style>
  </defs>
  <path class="cls-1" d="M391.23,40.4C175.02,40.4,0,215.62,0,431.63s175.02,391.23,391.23,391.23,391.23-175.23,391.23-391.23S607.23,40.4,391.23,40.4m0,566.3c-96.81,0-175.07-78.52-175.07-175.07s78.26-175.07,175.07-175.07,175.07,78.26,175.07,175.07-78.52,175.07-175.07,175.07"/>
  <path class="cls-1" d="M831.75,14.1V204.84c0,14.31-19.03,19.6-26.1,7.18-44.08-77.05-107.98-141.37-184.76-185.92-12.32-7.18-6.97-26.1,7.29-26.1h189.48c7.81,0,14.1,6.29,14.1,14.1"/>
</svg>